<svg width="512" height="512" viewBox="0 0 512 512" fill="none" xmlns="http://www.w3.org/2000/svg">
<g clip-path="url(#clip0_264_37)">
<path d="M302.323 2.5879C331.755 6.59941 360.931 16.0788 384.684 33.0782C399.757 44.0537 413.677 56.8561 424.135 71.8297C442.368 97.7129 453.086 128.256 455.646 159.051C456.031 174.078 456.146 189.197 454.721 204.197C459.772 211.453 466.008 218.138 471.529 225.142C480.183 236.038 487.298 247.622 494.202 259.525C502.184 273.161 507.709 288.135 511.026 303.334C511.95 308.709 512.703 314.984 510.911 320.254C509.371 324.702 505.856 328.171 501.003 329.534C492.009 333.016 483.286 329.971 473.78 328.912C474.746 346.335 475.044 364.129 472.328 381.419C469.11 402.498 458.863 424.157 442.013 438.865C425.587 451.972 407.571 462.949 387.133 469.834C384.199 470.784 381.368 471.792 378.693 473.286C385.337 474.36 390.847 478.2 394.802 483.165C396.567 485.547 398.363 488.394 398.218 491.373C398.149 494.642 395.715 497.319 393.151 499.316C387.844 502.97 381.738 504.293 375.192 503.765C368.018 513.164 353.374 513.904 343.283 508.226C340.465 509.975 338.373 511.946 334.758 512C320.682 512.066 306.464 502.706 302.906 489.825C284.604 490.166 266.244 490.314 247.927 490.1C239.801 490.089 231.588 489.693 223.547 488.564C220.388 488.103 217.242 488.157 214.083 488.289C214.894 492.3 213.428 496.074 211.009 499.355C206.696 504.879 199.537 508.439 192.478 509.894C186.045 510.848 180.879 508.73 175.086 506.624C169.479 507.605 164.412 510.359 158.335 509.828C152.258 509.882 147.248 507.458 142.623 504.017C138.524 503.843 134.824 504.188 131.209 502.043C125.26 499.262 121.531 493.913 123.253 487.614C124.989 480.636 132.148 476.901 137.556 472.467C122.57 466.987 106.288 460.432 94.2901 450.211C87.7862 444.56 80.7412 440.111 75.6602 433.133C57.8701 410.969 49.6724 384.836 46.6409 357.615C44.9899 343.674 46.5981 330.064 47.5373 316.176C40.393 318.387 33.4617 323.418 25.9187 323.272C20.1119 323.299 14.846 323.881 9.53737 321.22C3.84447 319.181 0.201021 314.309 0.0729316 308.656C-0.681377 296.529 4.54186 284.733 9.89318 273.929C19.2864 255.169 32.4512 239.163 47.3665 223.95C53.8991 216.775 61.5134 210.115 67.4625 202.529C66.1817 169.96 72.3869 137.365 85.2243 107.047C91.3725 92.5626 98.7732 77.7875 108.708 65.197C119.453 51.1632 133.002 38.983 148.23 29.1991C174.147 13.0735 203.964 4.2693 234.848 1.23748C257.235 -0.642513 280.049 -0.523361 302.323 2.5879Z" fill="#010E2E"/>
<path d="M270.699 11.0612C281.117 11.5246 291.777 11.9217 302.024 13.6826C318.861 15.92 335.327 21.1363 350.812 27.5839C378.081 39.2215 399.769 59.0406 415.61 82.501C429.274 103.446 439.85 127.832 441.913 152.418C443.763 165.353 442.838 177.811 443.136 190.812C443.293 196.002 442.41 201.391 443.178 206.528C445.184 210.393 449.085 213.438 451.775 216.934C457.354 224.109 462.676 231.457 468.656 238.381C473.42 243.862 475.912 249.847 479.473 256.069C485.506 266.674 489.094 277.835 493.732 288.996C496.705 297.72 500.465 307.398 500.136 316.613C500.151 318.956 497.106 319.539 495.242 320.214C487.798 322.2 478.758 320.598 472.014 317.275C466.86 312.363 463.219 306.141 458.022 301.149C456.058 301.626 454.182 301.705 452.673 303.135C451.221 304.313 451.546 306.908 451.802 308.484C453.154 315.461 459.092 320.386 460.143 327.165C462.336 339.583 462.007 351.711 461.495 364.248C460.769 374.469 458.179 384.716 455.248 394.554C450.464 406.443 441.925 417.311 433.958 427.52C429.06 433.912 422.27 437.209 415.541 441.581C414.571 440.599 413.604 439.622 412.607 438.668C415.924 434.471 419.527 430.286 422.27 425.759C429.075 413.964 433.202 401.253 435.636 388.104C438.253 374.204 437.615 359.76 437.217 345.713C435.85 324.927 428.834 305.651 419.267 286.983C412.309 273.585 404.908 260.107 395.585 247.967C392.058 243.32 389.468 238.302 385.483 233.933C390.022 229.339 394.378 224.453 397.92 219.158C400.583 214.749 402.688 210.049 404.851 205.415L406.803 205.985C413.05 190.005 416.294 173.363 413.39 156.403C410.998 141.814 405.336 126.336 394.947 114.951C393.365 113.243 393.124 113.031 390.648 113.296C389.311 112.091 388.016 110.86 386.747 109.602L387.076 107.404C378.038 99.8179 365.685 93.741 353.246 93.9795C345.83 93.9531 337.69 93.3438 330.673 95.6478C319.131 99.0503 307.987 103.446 299.291 111.522C298.352 112.303 298.024 113.455 298.337 114.964C289.627 123.649 283.024 133.962 278.782 145.163C277.16 149.307 275.78 153.398 271.538 155.887C267.624 158.614 262.544 157.648 257.875 157.833C254.502 157.833 251.57 157.727 249.592 154.814C244.284 146.275 240.427 136.849 235.744 128.018C229.553 117.757 221.028 107.523 209.585 102.016C197.161 95.6874 182.331 92.523 168.255 94.893C153.44 97.382 140.218 104.558 130.383 115.136C126.555 112.819 125.032 117.718 125.772 120.458L125.16 121.279C123.438 120.975 122.328 121.372 121.83 122.484C111.967 137.656 107.427 156.006 108.095 173.654C108.394 180.499 107.939 186.761 109.917 193.434C112.223 201.55 115.639 210.195 121.26 216.854L123.637 216.484C129.145 222.468 134.581 228.584 139.876 234.754C134.881 241.321 129.501 247.715 123.779 253.752C120.221 252.614 119.154 256.678 117.204 258.624C93.55 288.374 82.5772 326.291 81.4386 362.924C82.0507 380.969 84.4414 398.352 92.3262 415.023C101.278 435.107 119.367 451.786 139.407 462.549C144.701 465.594 150.65 467.184 155.816 470.427C149.326 470.559 144.502 467.821 138.453 466.153C128.704 462.999 119.51 461.94 111.397 455.505C107.982 453.19 107.782 449.668 104.979 446.914C99.3712 441.46 93.0235 436.957 88.085 430.856C78.2221 418.886 74.3795 406.02 68.2167 392.436C64.6587 384.2 63.0222 375.104 60.4603 366.486C57.5996 356.463 57.8132 346.706 58.0979 336.446C58.4677 328.078 58.6102 319.526 60.2185 311.277C61.001 307.2 63.8758 304.34 65.5979 300.554C66.9501 297.562 66.2956 294.225 66.0679 291.101C63.9045 291.088 60.745 290.253 58.909 291.537C54.6961 293.748 53.956 299.349 50.4836 302.328C43.6518 308.1 35.2123 311.37 26.246 313.078C22.9441 313.541 19.2722 313.449 16.0842 312.456C13.3658 311.516 12.4265 308.471 12.7396 306.008C14.6183 293.762 18.6887 281.926 25.6625 271.334C38.3148 247.98 59.7343 228.438 77.6528 208.5C79.9156 205.958 79.6878 203.191 79.8586 200.093C80.0863 189.7 79.6168 179.903 81.5383 169.603C84.6122 149.241 89.6222 128.627 97.891 109.509C104.48 94.4031 112.507 78.6878 123.794 66.0972C134.895 52.3547 149.839 41.0484 165.565 32.1515C183.541 23.3341 202.868 17.8398 222.665 13.8547C238.221 10.9553 254.872 10.9023 270.699 11.0612Z" fill="#021C57"/>
<path d="M168.255 94.893C182.331 92.5234 197.161 95.6873 209.586 102.016C221.028 107.523 229.553 117.758 235.744 128.018C240.427 136.849 244.284 146.275 249.592 154.814C251.57 157.727 254.503 157.833 257.875 157.833C262.544 157.648 267.625 158.614 271.538 155.887C275.78 153.398 277.16 149.307 278.782 145.163C283.024 133.962 289.628 123.649 298.338 114.964C308.998 104.823 322.945 98.9312 337.761 96.2172C348.506 94.9197 360.148 95.5683 370.267 99.4079C376.316 101.764 381.767 105.697 386.747 109.602C388.016 110.86 389.311 112.091 390.648 113.296C406.02 128.64 412.523 151.716 411.98 172.277C412.038 183.981 408.48 194.387 404.851 205.416C402.688 210.049 400.583 214.749 397.919 219.158C394.378 224.454 390.022 229.339 385.482 233.933C384.913 236.065 385.269 237.852 386.533 239.295C392.654 247.808 399.272 255.897 404.511 264.953C416.336 284.719 427.722 306.525 432.548 328.793C437.642 354.372 436.874 381.658 428.433 406.547C421.731 426.287 407.697 443.117 389.781 455.191C379.846 461.781 368.901 465.171 357.416 468.655C338.373 474.349 317.736 475.501 297.769 477.328C270.699 479.802 243.643 478.941 216.588 476.769C200.947 474.822 185.064 473.526 169.636 470.47C147.932 466.323 128.419 455.428 113.361 440.413C102.317 430.181 94.9309 417.42 90.2767 403.662C83.9863 385.206 83.1182 366.221 84.8117 347.024C88.4694 313.184 100.908 280.536 123.779 253.753C129.501 247.715 134.881 241.321 139.876 234.754C134.582 228.584 129.145 222.468 123.637 216.484C114.571 205.68 110.273 191.13 110.216 177.56C109.092 158.283 113.746 137.577 125.16 121.279L125.772 120.458C127.366 118.724 128.903 116.95 130.383 115.136C140.218 104.558 153.44 97.382 168.255 94.893Z" fill="#FFFDF9"/>
<path d="M353.246 93.9784C365.685 93.7402 378.039 99.8171 387.076 107.403L386.747 109.601C381.767 105.695 376.317 101.763 370.268 99.4068C360.149 95.5671 348.507 94.9186 337.761 96.2161C322.946 98.9301 308.998 104.822 298.338 114.963C298.025 113.453 298.352 112.302 299.292 111.521C307.987 103.445 319.132 99.0491 330.674 95.6467C337.69 93.3431 345.831 93.952 353.246 93.9784Z" fill="#010E2E"/>
<path d="M394.947 114.951C405.336 126.337 411.002 141.814 413.39 156.404C416.294 173.364 413.05 190.005 406.803 205.985L404.851 205.416C408.48 194.388 412.038 183.981 411.984 172.278C412.523 151.717 406.02 128.641 390.648 113.296C393.124 113.032 393.365 113.244 394.947 114.951Z" fill="#010E2E"/>
<path d="M130.382 115.136C128.902 116.95 127.365 118.723 125.771 120.458C125.031 117.717 126.554 112.819 130.382 115.136Z" fill="#010E2E"/>
<path d="M125.16 121.279C113.745 137.577 109.092 158.283 110.216 177.56C110.273 191.13 114.571 205.68 123.637 216.483L121.26 216.854C115.638 210.195 112.222 201.549 109.917 193.434C107.939 186.761 108.394 180.499 108.095 173.654C107.426 156.006 111.966 137.656 121.829 122.484C122.327 121.372 123.437 120.974 125.16 121.279Z" fill="#010E2E"/>
<path d="M174.346 154.139C181.804 150.511 192.165 155.184 194.058 162.757C196.278 170.092 195.737 178.168 193.787 185.516C192.492 190.428 187.852 195.856 182.159 196.452C176.41 196.955 170.645 192.904 167.941 188.429C163.843 180.949 164.326 171.615 166.262 163.631C167.216 159.395 170.375 156.204 174.346 154.139Z" fill="#473E4A"/>
<path d="M338.217 154.365C345.404 151.915 352.649 155.914 355.21 162.308C357.715 169.087 357.203 176.991 355.908 183.968C354.485 190.31 349.176 195.632 341.875 195.566C334.958 196.307 329.194 190.442 326.931 184.948C325.024 177.732 324.896 169.206 328.212 162.321C330.076 158.257 333.791 155.689 338.217 154.365Z" fill="#473E4A"/>
<path d="M251.385 172.886C260.75 170.437 271.496 172.595 279.736 177.162C286.026 180.724 291.819 188.508 290.012 195.591C288.475 200.927 283.55 205.706 279.508 209.599C275.851 212.975 271.624 217.211 266.671 218.8C261.618 220.283 256.082 220.866 251.4 218.059C243.131 213.2 236.299 206.117 231.275 198.345C228.841 194.427 228.642 189.74 230.976 185.755C235.957 179.108 243.259 175.335 251.385 172.886Z" fill="#010E2E"/>
<path d="M276.25 187.026C279.751 189.396 279.509 193.765 277.161 196.784C273.375 201.775 268.393 206.66 263.056 210.235C260.865 211.824 258.36 212.088 255.77 211.228C253.137 209.414 251.144 206.7 248.924 204.489C245.224 200.637 239.445 195.963 238.378 190.72C239.645 188.059 241.85 186.364 244.498 184.974C254.161 179.572 267.454 180.632 276.25 187.026Z" fill="#FFD253"/>
<path d="M142.963 191.395C145.411 191.554 147.703 193.46 149.724 194.639C153.04 196.929 157.523 199.498 159.345 203.046C161.181 208.01 161.323 213.611 155.701 216.431C148.215 220.628 136.616 216.14 130.482 211.373C125.344 207.6 124.903 201.206 128.674 196.413C131.962 191.938 137.555 191.236 142.963 191.395Z" fill="#FFE0D9"/>
<path d="M373.142 194.122C377.156 193.989 381.183 193.367 383.843 196.822C387.771 201.059 385.395 205.044 386.72 210.115C388.413 215.874 381.852 221.051 376.06 220.349C372.929 219.991 369.2 219.859 366.396 218.416C361.486 215.212 356.974 211.598 354.014 206.646C357.743 200.318 365.044 194.426 373.142 194.122Z" fill="#FFE0D9"/>
<path d="M158.236 479.55C166.234 481.113 174.218 483.468 182.445 484.476C186.629 485.085 191.482 485.361 195.296 487.149C197.659 489.557 200.05 493.068 197.531 496.167C194.741 501.225 187.896 502.466 182.587 500.546C178.958 498.603 179.911 493.836 174.702 494.433C173.122 496.71 171.656 498.998 169.721 501.023C165.75 502.295 160.883 501.62 156.841 500.841C153.752 497.61 160.029 494.817 156.343 491.861C150.892 489.716 147.86 496.869 142.537 495.926C139.89 495.597 137.286 494.072 137.158 491.334C137.884 485.097 143.007 482.133 148.145 478.995C151.586 477.607 156.938 479.267 158.236 479.55Z" fill="#FCB324"/>
<path d="M371.064 481.908C376.002 484.305 382.265 485.628 383.775 491.345C382.961 494.379 377.924 495.981 374.892 495.888C372.274 494.988 369.897 493.293 367.52 491.943C365.513 492.777 363.706 493.665 362.055 495.015C362.98 496.908 363.891 498.789 364.73 500.72C360.39 502.016 356.006 501.911 351.58 501.093C348.378 498.378 348.463 493.836 343.055 494.736C341.603 497.61 341.589 500.414 337.689 501.252C333.761 501.741 328.922 501.834 325.378 499.952C320.966 497.094 317.622 493.545 317.793 488.208C321.82 486.063 325.976 486.063 330.459 485.376C340.137 484.356 349.687 482.556 358.981 479.868C364.383 480.097 367.676 480.756 371.064 481.908Z" fill="#FCB324"/>
</g>
<defs>
<clipPath id="clip0_264_37">
<rect width="512" height="512" fill="white"/>
</clipPath>
</defs>
</svg>
