<svg width="512" height="512" viewBox="0 0 512 512" fill="none" xmlns="http://www.w3.org/2000/svg">
<path d="M266.521 19.0707C273.709 21.8493 278.368 30.2253 280.596 37.1718C283.97 46.3973 281.088 56.2925 282.675 65.7679C284.883 63.9588 287.242 61.0802 290.083 60.3606C294.039 61.51 295.705 65.6479 297.161 69.0863C300.393 76.8922 301.347 85.4185 299.811 93.7439C298.396 100.581 294.792 106.268 290.696 111.806C288.337 114.474 285.536 116.683 282.443 118.472C273.438 122.86 264.142 125.789 253.982 124.809C245.971 124.25 239.094 121.081 232.107 117.453C229.265 115.843 226.856 113.734 224.638 111.375C222.409 111.396 220.18 111.486 217.952 111.695C219.417 111.276 222.68 111.465 223.523 110.316C220.943 105.968 218.223 101.87 216.827 96.9426C214.588 88.6966 214.829 79.6808 218.925 72.0249C219.859 70.4356 220.702 68.9563 222.79 68.9563C225.501 70.3557 227.198 73.764 229.165 76.0226C230.169 73.9639 230.601 72.2147 230.661 69.9359C231.002 61.2201 234.988 52.4344 241.544 46.6072C248.049 40.7001 255.569 38.6111 260.708 31.2148C260.894 27.7364 260.141 22.8637 260.894 19.8653C261.647 18.7407 263.529 17.9912 266.521 19.0707Z" fill="#F96F19"/>
<path d="M180.725 46.0674C182.382 45.6576 184.219 47.1969 185.053 48.5062C186.056 50.5253 185.062 52.7641 184.38 54.7232C181.448 61.8897 179.039 69.1762 178.467 76.9522C177.754 86.4081 180.063 96.4029 185.364 104.329C188.938 109.726 194.188 113.704 198.967 117.992C205.06 115.423 211.415 112.855 217.951 111.695C220.18 111.486 222.408 111.396 224.637 111.375C226.856 113.734 229.265 115.843 232.106 117.453C223.302 118.402 214.749 119.321 206.426 122.56C194.771 126.598 184.681 133.595 175.997 142.241C160.768 156.773 150.709 176.743 147.325 197.424C145.488 205.48 146.361 213.676 144.554 221.722C142.587 231.657 138.832 241.392 140.308 251.677C142.898 264.591 150.92 275.496 162.163 282.342C171.159 287.509 180.174 293.187 189.821 296.755C192.241 297.824 195.463 298.754 197.17 300.853C196.467 301.962 195.704 303.022 194.931 304.072C192 303.812 189.038 303.342 186.097 303.402C185.032 304.261 184.2 305.471 183.416 306.58C175.315 318.364 169.22 331.748 164.151 345.072C160.577 355.167 157.575 365.651 156.22 376.286C155.306 387.69 154.403 399.845 158.679 410.719C161.742 418.845 166.871 427.432 174.612 431.879C178.638 434.398 183.718 434.977 187.482 437.696C182.553 440.355 175.093 438.616 169.662 438.426C165.024 437.786 160.697 440.765 156.913 443.073C154.011 444.863 150.899 449.451 152.425 452.929C154.413 456.447 158.85 456.847 162.414 457.597C162.233 455.478 161.912 453.259 162.133 451.15C162.444 448.951 164.753 447.262 166.259 445.772C165.396 449.091 164.201 453.159 165.205 456.557C166.791 457.736 168.759 457.657 170.647 457.667C180.475 457.316 190.203 455.987 199.81 453.918C203.073 453.238 205.673 451.51 208.414 449.72C206.928 447.921 205.704 446.132 203.454 445.213C199.499 443.483 195.885 441.474 192.251 439.156C189.309 436.137 186.297 433.099 183.808 429.71C181.679 426.962 182.222 423.723 182.071 420.445C184.41 421.794 186.297 423.433 188.104 425.412C193.525 431.09 200.041 435.067 207.069 438.456C217.108 443.313 228.964 445.273 239.947 446.672C256.492 447.811 274.251 446.972 289.872 440.995C286.148 436.767 283.136 432.269 282.122 426.632C281.088 416.847 284.672 408.86 288.587 400.194C289.641 397.975 290.916 395.947 292.191 393.848C293.527 394.508 294.771 395.317 296.096 396.007C293.647 402.874 290.274 410.479 289.902 417.786C289.651 423.114 290.455 428.901 293.536 433.388C296.448 437.447 300.564 439.345 305.092 441.094C307.119 442.184 308.947 443.534 310.784 444.913C309.67 445.762 308.414 447.232 306.959 447.391C303.114 447.811 299.078 447.181 295.223 446.932C292.181 450.19 286.197 453.639 287.744 458.816C289.089 463.394 293.557 464.623 297.864 464.873C297.251 462.934 296.307 461.045 296.659 458.966C297.231 455.847 298.867 452.839 300.845 450.38C301.779 449.081 303.786 449.19 305.222 448.781C303.174 451.949 300.564 454.998 299.741 458.746C299.229 460.805 299.771 462.674 300.072 464.723C310.824 465.483 321.345 464.483 331.073 459.586C335.731 457.197 339.897 452.909 341.484 447.871C342.528 443.633 342.237 439.136 343.221 434.857C347.698 428.641 351.643 422.364 353.22 414.748C356.181 401.894 352.788 387.971 344.245 377.915C342.688 376.286 340.861 375.276 338.933 374.137C332.789 370.789 327.459 365.411 322.62 360.414C318.865 356.086 315.452 350.999 313.424 345.631C312.55 342.952 313.173 341.293 315.914 340.454C323.253 348.769 330.22 358.905 339.777 364.362C345.158 367.65 350.92 370.889 357.386 371.109C362.466 371.209 367.616 371.498 371.802 368.15C373.87 366.721 374.041 364.102 373.408 361.863C371.641 355.416 367.686 349.719 364.122 344.142C356.292 331.818 346.212 320.573 335.912 310.219C333.914 308.409 331.816 305.931 329.266 304.941C320.712 305.121 312.27 305.71 303.666 304.691C306.718 303.222 309.941 302.742 313.133 301.722C320.742 299.234 327.951 296.705 334.637 292.187C340.108 288.489 345.369 284.181 349.565 279.074C355.82 270.957 360.377 261.622 362.847 251.697C364.393 245.37 364.353 238.393 364.433 231.887C364.262 225.38 364.363 218.404 362.867 212.077C362.265 209.368 361.261 206.619 360.98 203.87C360.849 201.691 362.496 200.412 364.454 199.993C368.69 199.063 372.756 199.043 376.832 197.294C385.345 193.675 392.272 186.938 396.298 178.653C398.045 175.195 398.607 172.706 397.894 168.838C388.678 168.668 379.372 169.727 370.658 167.638C367.154 166.998 363.891 165.499 360.418 164.82C357.316 165.369 354.605 166.739 351.392 166.949C347.728 167.219 344.004 167.219 340.36 166.758C324.477 163.57 311.215 150.916 308.194 134.934C307.521 131.056 308.093 127.318 308.856 123.51C300.273 120.322 291.468 119.471 282.443 118.472C285.535 116.683 288.336 114.474 290.696 111.806C299.66 112.725 308.224 114.404 316.265 118.632C329.126 112.525 341.423 100.671 344.556 86.4478C346.634 76.6628 345.409 67.1671 342.688 57.6817C341.524 53.9335 344.425 50.2154 348.401 50.985C356.021 52.6242 362.988 58.6813 368.138 64.2685C374.362 70.8553 377.996 78.6014 381.32 86.8976C382.514 91.6053 384.12 96.0933 384.702 100.94C387.082 116.583 384.682 132.745 377.133 146.718C374.743 151.346 371.511 155.204 368.469 159.382C377.585 162.151 386.248 161.731 395.545 161.701C399.631 161.711 403.867 162.74 405.243 167.069C407.09 173.705 403.957 181.132 400.394 186.679C393.427 197.204 382.052 205.11 369.513 207.309C373.95 225.65 373.508 245.25 367.626 263.221C364.183 271.068 360.197 278.504 354.635 285.091C350.077 291.008 343.712 294.466 338.522 299.324C338.03 300.913 340.299 300.943 341.313 300.963C344.375 300.853 346.865 299.524 349.405 297.965C355.729 294.036 361.723 289.659 366.622 284.042C372.917 277.175 376.952 268.939 379.622 260.103C381.741 253.526 382.574 246.56 384.682 239.993C386.148 235.575 389.009 231.717 393.256 229.618C398.978 226.959 405.384 226.26 411.588 227.389C425.562 229.218 437.9 235.275 449.275 243.331C461.322 252.377 471.712 263.371 479.392 276.345C481.31 279.803 483.338 283.821 482.936 287.88C482.836 289.409 481.762 290.848 480.547 291.737C475.718 292.617 471.903 290.318 466.813 289.988C457.748 289.619 448.642 294.246 443.552 301.703C438.984 308.21 436.706 315.776 436.134 323.642C436.043 326.91 432.047 328.999 429.256 327.27C424.437 324.691 420.161 321.863 414.649 320.804C405.062 318.774 395.043 322.843 388.326 329.649C384.813 332.948 382.755 336.676 378.368 338.904C375.366 337.665 373.278 335.516 370.918 333.387C368.369 331.078 365.347 330.229 362.214 328.96C369.593 338.775 376.832 347.26 380.245 359.335C381.229 364.482 381.269 369.65 377.092 373.428C372.635 378.205 366.331 377.726 360.377 378.975C363.108 382.483 366.883 383.783 370.828 385.452C377.113 387.9 383.468 389.03 390.224 388.72C390.174 380.684 390.736 372.658 395.746 366.011C401.548 358.405 410.814 353.278 420.121 351.348C426.446 349.919 432.178 347.67 436.073 342.223C438.472 339.054 439.215 334.856 441.655 331.788C445.289 328.19 451.283 329.629 453.963 333.647C457.888 339.524 459.896 346.871 460.97 353.787C462.948 365.231 462.065 377.286 458.34 388.301C454.686 398.796 446.775 407.811 436.977 413.088C433.062 415.237 428.996 415.337 424.699 415.977C423.343 416.746 422.43 418.416 421.416 419.585C413.685 429.98 402.914 438.216 390.967 443.244C378.278 448.721 364.112 451.169 350.479 448.061C347.477 455.858 342.528 462.554 334.928 466.383C327.579 469.891 319.357 471.739 311.225 472.02C305.784 472.659 300.574 472.839 295.133 471.99C290.133 471.649 285.324 469.631 282.775 465.123C280.124 460.815 280.787 455.877 281.399 451.12C275.998 452.689 270.657 453.639 265.035 453.928C249.083 455.378 233.201 454.158 217.69 450.19C215.703 453.118 213.544 455.687 210.342 457.357C200.222 463.114 187.14 464.643 175.686 465.233C168.91 465.753 162.184 465.663 155.577 463.853C151.451 462.584 147.134 460.135 145.277 456.057C143.671 452.469 144.685 447.852 146.241 444.403C148.841 438.875 153.65 435.648 158.92 432.929C152.053 427.162 146.753 419.905 144.113 411.299C141.252 402.304 141.493 392.598 144.504 383.672C145.92 380.004 147.837 376.796 148.349 372.818C149.052 368.091 149.935 363.453 151.191 358.855C141.653 360.584 131.202 360.684 122.558 355.746C117.298 352.817 113.232 348.06 113.062 341.833C113.523 336.146 116.414 331.368 120.671 327.66C115.812 320.813 109.297 314.976 100.412 314.856C93.0131 314.456 87.2305 317.955 81.3274 321.863C79.4202 323.272 77.4626 322.942 75.2436 323.072C72.7439 318.514 73.3562 313.926 72.011 309.039C70.4549 303.282 67.8748 297.775 63.4877 293.607C59.4018 289.189 53.0771 286.83 47.194 286.2C42.5258 285.691 38.7008 287.299 34.1832 287.749C31.6935 287.889 29.2841 287.07 28.1898 284.691C27.3967 281.793 27.9288 278.794 29.4246 276.205C33.3299 269.289 38.2291 262.861 43.3692 256.825C47.8466 251.487 53.4084 246.869 58.6588 242.282C69.6317 232.786 82.9937 225.71 97.1693 222.411C103.534 221.092 109.668 220.362 115.972 222.452C119.447 223.741 122.699 226.11 123.592 229.888C125.289 237.784 125.58 246.09 127.608 253.916C129.124 261.982 132.829 269.928 138.32 276.095C146.382 285.571 157.173 292.337 169.05 296.006C164.462 292.597 159.031 290.608 154.543 286.97C140.539 277.065 131.674 260.083 132.819 242.881C133.18 232.467 137.226 223.111 138.059 212.896C138.551 207.189 139.193 201.492 139.936 195.814C124.195 191.207 113.081 176.124 112.83 159.912C112.73 155.974 115.421 152.586 119.266 151.766C123.683 150.937 128.17 152.455 132.497 153.165C137.527 154.095 142.707 154.275 147.716 153.155C143.149 146.128 138.862 139.182 136.804 130.956C135.368 125.099 134.525 118.982 134.415 112.955C134.877 105.708 135.69 98.6818 137.909 91.735C142.045 78.1816 150.498 65.8478 161.139 56.5023C166.63 52.1044 173.538 46.857 180.725 46.0674Z" fill="#63291B"/>
<path d="M267.043 52.7742C268.89 53.2939 269.172 54.6233 269.624 56.2624C270.959 62.3995 270.718 69.4061 272.736 75.363C274.593 80.2108 278.106 84.1592 279.773 89.1862C281.731 95.0536 282.092 101.81 277.976 106.878C274.482 111.626 269.513 112.915 264.062 114.254C268.369 110.526 271.36 105.809 271.149 99.9412C271.25 94.6136 267.013 87.6172 261.04 87.8174C258.68 87.7469 256.361 87.8474 254.434 89.3766C249.114 93.8444 247.567 101.131 249.385 107.657C250.388 109.926 251.945 111.986 253.25 114.094C248.12 112.645 243.501 108.117 241.604 103.21C240.048 98.2021 240.711 92.3347 241.353 87.1974C243.03 76.9125 249.214 69.476 256.512 62.4894C260.006 59.3209 263.058 55.283 267.043 52.7742Z" fill="#FEA72A"/>
<path d="M175.626 55.113C174.903 61.1701 172.936 66.4775 171.4 72.3446C165.999 69.646 161.33 71.3851 155.889 72.6845C161.12 65.438 167.725 59.371 175.626 55.113Z" fill="#8A3427"/>
<path d="M351.031 59.7507C354.565 60.9602 357.245 63.8887 359.996 66.3475C366.069 71.6849 369.834 79.881 373.649 86.9178C369.955 84.4485 366.682 81.2304 362.606 79.7214C359.343 78.402 355.991 78.2221 352.637 77.342C351.714 76.7123 352.407 74.8933 352.296 73.9638C352.989 69.0263 351.613 64.5884 351.031 59.7507Z" fill="#8A3427"/>
<path d="M170.656 74.1938C170.566 77.432 170.385 80.7206 170.616 83.9493C170.857 88.2372 172.574 92.4749 173.046 96.7928C166.601 98.2823 160.386 99.2718 154.765 103.12C151.301 105.618 146.492 107.867 145.047 112.065C150.88 109.387 155.477 105.189 161.41 102.73C164.934 101.291 168.659 100.031 172.454 99.5716C174.441 99.1414 175.044 101.53 175.977 102.78C177.925 106.468 180.294 109.797 182.935 113.025C179.23 114.164 174.492 115.094 171.751 117.992C169.442 120.371 167.394 123 165.175 125.469C159.051 131.956 156.642 141.341 155.266 149.897C152.666 146.829 150.257 143.67 148.51 140.032C146.673 136.194 144.224 132.125 143.45 127.957C142.386 123.24 142.737 118.722 142.607 113.954C141.382 100.561 146.683 86.5175 154.263 75.6628C159.172 73.5242 165.416 73.6941 170.656 74.1938Z" fill="#8A3427"/>
<path d="M352.075 80.3406C359.795 81.4305 367.104 84.2792 373.077 89.3167C376.441 92.1248 376.461 96.9225 377.233 100.911C378.599 108.557 378.257 116.223 377.083 123.87C373.449 116.683 367.968 110.646 361.592 105.758C357.587 102.7 352.979 101.81 348.652 99.5312C348.491 96.903 350.308 93.9742 350.991 91.4254C352.427 87.7372 351.955 84.1892 352.075 80.3406Z" fill="#8A3427"/>
<path d="M261.039 87.8174C267.013 87.6172 271.25 94.6136 271.149 99.9412C271.36 105.809 268.369 110.526 264.062 114.254C260.408 115.363 256.884 115.074 253.249 114.094C251.945 111.986 250.388 109.926 249.385 107.657C247.567 101.131 249.114 93.8444 254.434 89.3766C256.361 87.8474 258.68 87.7469 261.039 87.8174Z" fill="#F9E85A"/>
<path d="M346.454 102.36C359.484 105.149 368.329 114.444 375.246 125.219C377.525 128.287 374.232 132.555 373.248 135.654C370.859 142.37 367.928 147.548 363.028 152.766C359.575 148.907 357.216 144.389 354.033 140.322C347.96 131.866 340.711 123.8 332.198 117.702C334.627 115.153 337.298 112.865 339.838 110.426C342.368 107.987 343.994 104.819 346.454 102.36Z" fill="#8A3427"/>
<path d="M184.611 116.053C186.98 117.113 189.028 119.172 190.986 120.851C186.478 124.259 181.64 126.868 177.433 130.676C170.376 136.553 164.964 143.939 158.017 149.957C158.981 144.26 160.637 138.622 163.037 133.365C165.617 128.107 169.803 125.139 173.949 121.221C176.75 118.622 180.686 116.094 184.611 116.053Z" fill="#8A3427"/>
<path d="M232.107 117.453C239.094 121.081 245.971 124.25 253.982 124.809C264.142 125.789 273.438 122.86 282.443 118.472C291.469 119.471 300.273 120.321 308.856 123.51C308.094 127.318 307.522 131.056 308.194 134.934C311.216 150.916 324.478 163.57 340.36 166.758C344.004 167.219 347.729 167.219 351.393 166.949C354.605 166.739 357.316 165.369 360.418 164.82C363.892 165.499 367.154 166.998 370.658 167.638C379.372 169.727 388.679 168.668 397.895 168.838C398.607 172.706 398.045 175.195 396.299 178.653C392.273 186.938 385.346 193.675 376.832 197.294C372.756 199.043 368.69 199.063 364.454 199.993C362.496 200.412 360.85 201.691 360.98 203.87C361.261 206.619 362.266 209.368 362.868 212.077C364.363 218.404 364.263 225.38 364.434 231.887C364.354 238.393 364.393 245.37 362.848 251.697C360.378 261.622 355.82 270.957 349.566 279.074C345.37 284.181 340.109 288.489 334.637 292.187C327.951 296.705 320.743 299.234 313.133 301.722C309.941 302.742 306.718 303.222 303.666 304.691C312.27 305.71 320.713 305.121 329.266 304.941C331.817 305.931 333.914 308.409 335.913 310.219C346.213 320.573 356.292 331.818 364.122 344.142C367.687 349.719 371.642 355.416 373.409 361.863C374.042 364.102 373.871 366.721 371.802 368.15C367.616 371.498 362.466 371.209 357.387 371.109C350.921 370.889 345.159 367.65 339.778 364.362C330.22 358.905 323.253 348.769 315.915 340.454C313.174 341.293 312.551 342.952 313.425 345.631C315.452 350.999 318.866 356.086 322.62 360.414C327.459 365.411 332.79 370.789 338.934 374.137C340.862 375.276 342.689 376.286 344.245 377.915C352.788 387.971 356.182 401.894 353.22 414.748C351.644 422.364 347.698 428.641 343.221 434.857C338.051 436.947 332.871 438.626 327.279 439.216C319.94 440.055 312.491 441.195 305.092 441.094C300.564 439.345 296.448 437.447 293.537 433.388C290.455 428.901 289.652 423.114 289.903 417.786C290.274 410.479 293.647 402.874 296.097 396.007C294.772 395.317 293.527 394.508 292.192 393.848C288.116 392.978 283.256 395.457 279.1 395.867C250.318 399.965 220.873 399.055 192.602 392.119C185.344 390.799 178.869 387.72 172.043 385.152C172.052 389.8 171.38 394.747 173.438 399.035C176.66 406.772 180.536 415.857 188.075 420.374C198.456 425.892 210.031 429.34 221.786 430.17C240.178 431.779 259.384 430.989 277.223 425.962C279.211 425.252 280.315 425.852 282.123 426.632C283.136 432.269 286.148 436.767 289.873 440.995C274.251 446.972 256.492 447.811 239.947 446.672C228.965 445.273 217.108 443.313 207.069 438.456C200.041 435.067 193.526 431.09 188.105 425.412C186.298 423.433 184.41 421.794 182.072 420.445C182.222 423.723 181.68 426.962 183.808 429.71C186.298 433.099 189.31 436.137 192.252 439.156C190.896 438.666 189.53 438.246 188.145 437.866L187.482 437.696C183.718 434.977 178.638 434.398 174.612 431.879C166.872 427.432 161.742 418.845 158.68 410.719C154.403 399.845 155.307 387.69 156.22 376.286C157.576 365.651 160.578 355.167 164.152 345.072C169.221 331.748 175.315 318.364 183.417 306.58C184.2 305.471 185.033 304.261 186.097 303.402C189.039 303.342 192 303.812 194.932 304.072C195.705 303.022 196.468 301.962 197.17 300.853C195.464 298.754 192.241 297.824 189.822 296.755C180.174 293.187 171.159 287.509 162.164 282.342C150.92 275.496 142.898 264.591 140.308 251.677C138.833 241.392 142.588 231.657 144.555 221.721C146.362 213.676 145.489 205.48 147.326 197.424C150.709 176.743 160.768 156.773 175.998 142.241C184.681 133.595 194.771 126.598 206.426 122.56C214.749 119.321 223.303 118.402 232.107 117.453Z" fill="#E55C24"/>
<path d="M329.457 119.222C337.709 125.588 345.921 132.945 351.432 141.871C354.133 146.239 357.446 150.097 360.599 154.135C357.918 156.574 355.117 158.362 351.392 158.593C345.961 158.982 339.466 159.112 334.487 156.604C326.435 152.646 319.809 145.789 316.817 137.293C315.552 133.695 315.201 129.917 316.597 126.278C320.964 123.98 325.371 122.091 329.457 119.222Z" fill="#8A3427"/>
<path d="M120.48 158.982C124.757 158.763 128.301 160.122 132.497 160.581C139.405 161.451 145.649 160.191 152.525 159.642C147.777 168.688 143.962 178.163 140.86 187.878C132.196 184.959 125.028 178.413 122.057 169.717C121.083 166.428 119.607 162.38 120.48 158.982Z" fill="#E55C24"/>
<path d="M186.137 200.332C189.58 198.923 193.224 199.203 196.277 201.382C200.654 204.371 202.069 209.388 202.651 214.375C203.093 219.873 202.18 225.77 199.62 230.698C197.441 234.815 193.576 237.924 188.747 238.024C183.466 238.303 178.527 234.546 177.081 229.548C175.114 223.241 175.636 216.095 177.734 209.888C179.11 205.81 182.071 202.002 186.137 200.332Z" fill="#63291B"/>
<path d="M293.316 204.06C297.794 201.612 302.833 203.571 306.236 206.849C310.262 210.997 311.417 217.324 311.447 222.891C311.347 228.978 309.861 235.615 305.253 239.943C301.076 243.911 294.009 244.271 289.722 240.263C282.695 234.056 280.907 222.812 284.612 214.395C286.409 210.308 289.11 206.009 293.316 204.06Z" fill="#63291B"/>
<path d="M104.408 229.088C108.052 228.708 112.871 229.108 115.742 231.617C117.158 233.936 117.218 237.244 117.59 239.883C119.085 254.546 122.82 268.559 131.836 280.513C139.927 290.988 150.94 297.215 163.057 302.052C159.484 303.742 156.05 305.611 152.647 307.62C148.48 308.06 143.842 306.501 141.613 302.792C140.318 300.913 139.696 299.084 137.327 298.345C134.054 297.115 132.036 294.616 129.265 292.657C130.33 299.644 131.132 306.78 131.042 313.847C131.052 316.645 130.259 318.994 128.843 321.373C128.151 321.853 127.458 322.333 126.765 322.802C125.119 320.613 123.533 318.475 121.596 316.525C121.394 312.637 121.123 308.759 120.782 304.881C120.32 300.234 120.732 295.946 119.648 291.358C117.901 284.171 115.582 277.104 114.006 269.878C112.931 265.11 111.044 260.753 109.528 256.035C109.056 256.235 108.585 256.445 108.113 256.654C101.868 266.29 97.5511 276.665 92.8332 287.06C89.1784 295.236 87.1906 303.712 82.4524 311.398C81.5089 310.609 80.5648 309.809 79.6416 308.989C79.1093 307.3 78.5875 305.611 78.1056 303.911C77.2518 297.944 80.5346 292.637 82.3718 287.11C84.2798 281.233 87.4519 275.946 89.4299 270.108C91.0961 265.271 93.4551 260.972 95.7343 256.395C98.234 251.238 102.4 247.559 104.107 241.962C95.3224 242.572 86.4076 246.579 78.5168 250.318C73.7082 252.987 68.5982 255.466 64.2813 258.894C58.4184 263.891 51.8729 267.629 46.3011 273.077C44.8153 274.566 43.5403 276.305 41.9542 277.685C40.7494 278.204 39.1231 277.374 37.8582 277.205C44.2531 267.14 51.2906 257.834 60.5468 250.178C72.6239 239.253 88.1145 231.157 104.408 229.088Z" fill="#E55C24"/>
<path d="M155.066 231.467C158.359 230.428 162.234 230.847 165.647 230.877C167.444 231.077 169.964 230.847 171.299 232.227C175.536 235.725 176.309 240.992 177.212 246.09C177.805 249.768 176.389 253.376 173.377 255.595C170.245 257.834 166.52 259.563 162.575 259.233C157.957 258.864 153.711 258.734 150.749 254.675C147.958 250.837 144.836 245.28 147.155 240.522C148.42 236.414 151.06 233.166 155.066 231.467Z" fill="#FA6F14"/>
<path d="M221.194 231.207C222.75 230.897 224.356 230.797 225.932 230.647C226.876 232.916 228.793 234.435 227.287 236.954C226.153 239.753 223.262 240.782 220.702 239.103C217.881 237.154 218.845 233.076 221.194 231.207Z" fill="#63291B"/>
<path d="M257.184 232.916C259.323 232.426 261.491 234.776 261.07 236.875C261.05 240.012 257.365 243.531 254.203 242.731C251.211 241.352 251.643 238.863 252.205 236.114C253.229 234.416 255.257 233.266 257.184 232.916Z" fill="#63291B"/>
<path d="M321.656 238.404C326.997 236.984 331.123 238.543 334.908 242.302C338.813 245.4 338.854 250.357 338.361 254.885C337.99 258.984 336.494 263.092 332.96 265.5C329.728 267.559 325.1 267.559 321.395 267.4C317.088 267.08 312.33 264.891 310.573 260.723C309.188 256.804 309.86 252.017 310.683 248.049C311.767 243.071 317.048 239.703 321.656 238.404Z" fill="#FA6F14"/>
<path d="M104.107 241.962C102.4 247.559 98.2341 251.238 95.7343 256.395C93.4552 260.972 91.0962 265.271 89.43 270.108C87.452 275.946 84.2798 281.233 82.3719 287.11C80.5347 292.637 77.2519 297.944 78.1057 303.911C75.8266 295.605 70.6765 288.339 63.3981 283.671C55.1559 278.844 45.5082 277.664 36.2119 279.713C36.764 278.884 37.3162 278.045 37.8583 277.205C39.1232 277.374 40.7496 278.204 41.9543 277.685C43.5405 276.305 44.8155 274.566 46.3012 273.077C51.8731 267.629 58.4186 263.891 64.2815 258.894C68.5984 255.466 73.7084 252.987 78.5168 250.318C86.4076 246.579 95.3225 242.572 104.107 241.962Z" fill="#FB8121"/>
<path d="M406.789 247.209C413.555 246.8 420.372 247.619 426.757 249.928C435.431 252.786 443.582 258.444 451.032 263.641C457.989 268.459 462.447 275.226 468.982 280.333L470.338 278.874C469.052 274.756 465.649 271.158 463.079 267.739C459.746 263.251 455.118 260.263 452.116 255.525C460.76 262.852 468.711 271.847 473.861 281.973C468.881 282.162 463.862 281.922 458.903 282.312C457.406 282.422 455.991 283.532 454.686 284.221C450.078 286.36 445.641 288.479 441.997 292.127C436.305 297.494 433.192 304.222 430.692 311.488C430.492 308.879 430.341 306.291 430.261 303.671C430.12 297.725 427.309 292.067 425 286.68C421.326 278.504 418.385 270.158 414.268 262.192C411.768 257.055 408.657 252.636 406.789 247.209Z" fill="#FB8121"/>
<path d="M108.113 256.654C108.584 256.444 109.056 256.235 109.528 256.035C111.044 260.753 112.931 265.11 114.005 269.878C115.582 277.104 117.901 284.171 119.648 291.358C120.732 295.946 120.32 300.234 120.782 304.881C121.123 308.759 121.394 312.637 121.595 316.525C115.29 311.258 107.751 307.599 99.3883 307.53C92.7323 307.77 86.0665 310.039 80.4443 313.557C80.1935 312.028 79.942 310.508 79.6409 308.989C80.5647 309.809 81.5082 310.609 82.4524 311.398C87.1906 303.712 89.1784 295.236 92.8324 287.06C97.5511 276.665 101.868 266.29 108.113 256.654Z" fill="#FB8121"/>
<path d="M399.922 260.173C401.539 260.293 402.322 262.092 403.235 263.221C408.998 271.967 413.214 281.802 416.678 291.647C418.646 297.455 419.81 303.522 422.029 309.339C423.123 312.178 425.121 314.537 426.306 317.355C418.053 313.587 409.279 311.698 400.354 314.307C391.108 316.625 383.719 322.502 378.238 330.139C374.784 327.54 371.351 324.511 367.395 322.852C363.561 321.073 359.555 320.474 355.409 319.914C353.762 317.705 352.156 315.526 350.188 313.567C353.592 312.897 356.844 312.097 359.796 310.208C365.709 306.52 371.019 301.623 376.13 296.925C375.868 303.612 374.633 310.118 374.995 316.846C375.356 321.403 373.419 325.271 377.284 328.67C380.446 325.421 386.48 321.983 385.908 316.855C386.169 310.828 385.516 304.582 386.3 298.604C387.504 292.327 390.697 286.22 393.086 280.313C394.401 276.535 395.546 272.687 396.76 268.869C397.664 266.02 398.176 262.602 399.922 260.173Z" fill="#FB8121"/>
<path d="M129.265 292.657C132.036 294.616 134.054 297.115 137.327 298.345C139.695 299.084 140.318 300.913 141.613 302.792C143.842 306.501 148.48 308.06 152.646 307.62C149.414 309.469 146.221 311.378 143.029 313.287C138.33 316.106 133.391 318.304 128.843 321.373C130.259 318.994 131.052 316.645 131.042 313.847C131.132 306.78 130.329 299.644 129.265 292.657Z" fill="#FB8121"/>
<path d="M176.138 304.432C173.648 308.259 170.948 311.908 168.749 315.926C163.448 325.051 159.764 335.216 155.909 345.012C154.915 347.111 154.082 350.229 151.602 350.949C146.773 352.978 140.639 352.558 135.519 352.078C130.63 351.588 125.45 349.969 122.287 346.001C120.32 343.572 120.3 339.914 121.866 337.285C124.145 333.207 128.572 330.199 132.437 327.76C139.987 323.222 147.817 319.184 155.336 314.597C162.053 310.708 168.769 306.76 176.138 304.432Z" fill="#E55C24"/>
<path d="M224.166 319.344C230.029 318.604 236.042 318.844 241.945 318.885C249.926 318.885 257.958 322.013 264.634 326.221C273.91 331.928 282.464 340.634 286.439 350.868C277.735 351.548 269.161 353.057 260.437 353.378C243.772 354.427 227.238 354.247 210.833 350.868C202.08 348.979 192.934 347.24 184.611 343.932C187.573 339.864 190.725 335.886 193.918 331.998C196.789 328.57 200.614 327.36 204.609 325.701C210.934 323.092 217.56 321.134 224.166 319.344Z" fill="#FB8121"/>
<path d="M447.769 337.305C448.834 338.805 449.857 340.324 450.53 342.053C453.822 350.709 454.575 359.624 454.405 368.82C454.315 379.744 450.319 390.909 443.031 399.125C439.106 403.273 434.577 406.661 428.745 407.431C431.014 400.335 432.379 393.298 430.472 385.921C429.578 382.653 428.403 378.655 424.629 377.786C421.999 376.986 419.418 379.205 417.26 380.454C411.196 384.502 404.299 386.511 397.152 387.641C397.694 382.823 397.905 377.726 400.133 373.327C402.492 368.67 406.739 364.942 411.357 362.573C419.659 357.985 428.504 358.425 436.395 352.558C442.107 348.48 444.105 342.913 447.769 337.305Z" fill="#FA6F14"/>
<path d="M183.738 348.69C186.458 348.799 189.269 349.859 191.859 350.689C200.614 353.627 209.739 355.536 218.875 356.836C230.641 358.135 242.176 359.035 253.992 358.055C265.417 357.776 276.711 356.386 288.035 354.927C291.78 365.611 292.734 377.456 291.991 388.69C282.574 390.439 273.609 392.418 264.032 392.958C249.154 394.277 234.074 393.897 219.217 392.349C206.236 390.499 193.325 387.521 180.766 383.723C178.086 382.793 174.863 381.744 172.825 379.705C172.775 374.557 174.773 369.14 176.279 364.252C177.835 359.554 179.351 354.337 182.121 350.199C182.563 349.53 183.095 349.03 183.738 348.69Z" fill="#FB8121"/>
<path d="M172.042 385.152C178.869 387.72 185.344 390.799 192.602 392.119C220.873 399.055 250.318 399.965 279.1 395.867C283.257 395.457 288.115 392.978 292.192 393.848C290.916 395.947 289.641 397.975 288.587 400.194C284.672 408.86 281.088 416.847 282.122 426.632C280.315 425.852 279.211 425.252 277.223 425.962C259.383 430.989 240.179 431.779 221.786 430.17C210.031 429.34 198.455 425.892 188.075 420.375C180.535 415.857 176.66 406.772 173.438 399.035C171.379 394.748 172.052 389.8 172.042 385.152Z" fill="#FB8121"/>
<path d="M357.637 386.561C363.5 391.059 370.206 393.548 377.444 394.887C387.845 397.086 399.149 395.637 409.169 392.338C414.027 390.859 418.163 388.23 422.771 386.211C425.231 396.337 421.536 406.592 415.674 414.827C409.419 423.483 400.395 430.34 390.917 435.187C382.936 439.396 373.348 441.085 364.424 441.804C359.524 442.194 354.997 441.175 350.238 440.275C351.403 437.926 352.657 435.678 354.093 433.478C357.406 428.471 359.494 422.704 360.458 416.806C361.382 411.079 362.526 405.582 361.613 399.775C360.95 395.077 359.193 390.979 357.637 386.561Z" fill="#E55C24"/>
<path d="M343.221 434.857C342.237 439.136 342.528 443.633 341.484 447.871C339.898 452.909 335.732 457.197 331.073 459.586C321.345 464.483 310.825 465.483 300.073 464.723C299.771 462.674 299.229 460.805 299.741 458.746C300.564 454.998 303.175 451.949 305.223 448.781C303.787 449.19 301.779 449.081 300.845 450.38C298.868 452.839 297.231 455.847 296.659 458.966C296.308 461.045 297.251 462.934 297.863 464.873C293.557 464.623 289.089 463.394 287.744 458.816C286.198 453.639 292.182 450.19 295.224 446.932C299.079 447.181 303.114 447.811 306.959 447.391C308.415 447.232 309.67 445.762 310.784 444.913C308.947 443.534 307.12 442.184 305.092 441.094C312.491 441.195 319.94 440.055 327.279 439.216C332.871 438.626 338.051 436.947 343.221 434.857Z" fill="#AE4125"/>
<path d="M187.482 437.696L188.145 437.866C189.53 438.246 190.896 438.666 192.252 439.156C195.885 441.474 199.499 443.483 203.455 445.213C205.704 446.132 206.929 447.921 208.414 449.72C205.673 451.51 203.074 453.238 199.811 453.918C190.204 455.987 180.476 457.316 170.647 457.667C168.76 457.657 166.792 457.736 165.206 456.557C164.201 453.159 165.396 449.091 166.26 445.772C164.754 447.262 162.445 448.951 162.134 451.15C161.913 453.259 162.234 455.478 162.415 457.597C158.851 456.847 154.413 456.447 152.425 452.929C150.9 449.451 154.012 444.863 156.913 443.073C160.698 440.765 165.025 437.786 169.663 438.426C175.094 438.616 182.554 440.355 187.482 437.696Z" fill="#AE4125"/>
<path d="M407.592 234.516C417.932 234.716 427.108 238.524 435.862 243.711C441.585 247.13 447.357 250.828 452.115 255.525C456.659 259.748 460.808 263.88 463.812 267.245C466.823 270.618 469.459 273.991 471.341 277.739L468.981 280.333C462.446 275.226 457.988 268.459 451.031 263.641C443.582 258.444 435.43 252.786 426.756 249.928C420.371 247.619 413.555 246.8 406.788 247.209C408.656 252.636 411.768 257.055 414.268 262.192C418.384 270.158 421.325 278.504 425 286.68C427.309 292.067 430.12 297.725 430.261 303.671C430.34 306.291 430.491 308.879 430.692 311.488C430.27 313.967 429.779 316.426 429.256 318.885C428.283 318.364 427.298 317.845 426.305 317.355C425.12 314.537 423.123 312.178 422.028 309.339C419.81 303.522 418.645 297.455 416.678 291.647C413.214 281.802 408.998 271.967 403.235 263.221C402.321 262.092 401.538 260.293 399.922 260.173C398.175 262.602 397.663 266.02 396.759 268.869C395.545 272.687 394.4 276.535 393.085 280.313C390.696 286.22 387.503 292.327 386.299 298.604C385.516 304.582 386.168 310.828 385.907 316.855C386.479 321.983 380.446 325.421 377.284 328.67C373.418 325.271 375.356 321.403 374.995 316.846C374.633 310.118 375.868 303.612 376.129 296.925C371.019 301.623 365.708 306.52 359.795 310.208C356.844 312.097 353.591 312.897 350.188 313.567C348.401 311.798 346.664 310.009 345.007 308.12C357.295 302.672 368.409 294.666 376.41 283.811C382.745 274.556 386.56 263.801 388.819 252.887C389.933 248.199 390.796 242.132 394.109 238.444C397.462 234.695 402.914 234.476 407.592 234.516Z" fill="#E55C24"/>
</svg>
