<?xml version="1.0" encoding="UTF-8" standalone="no"?>
<svg
   version="1.1"
   viewBox="0 0 422 575"
   width="422.0pt"
   height="575.0pt"
   id="svg25"
   sodipodi:docname="image_2025-07-23_184930522.svg"
   inkscape:version="1.4.2 (f4327f4, 2025-05-13)"
   xmlns:inkscape="http://www.inkscape.org/namespaces/inkscape"
   xmlns:sodipodi="http://sodipodi.sourceforge.net/DTD/sodipodi-0.dtd"
   xmlns="http://www.w3.org/2000/svg"
   xmlns:svg="http://www.w3.org/2000/svg">
  <defs
     id="defs25" />
  <sodipodi:namedview
     id="namedview25"
     pagecolor="#ffffff"
     bordercolor="#111111"
     borderopacity="1"
     inkscape:showpageshadow="0"
     inkscape:pageopacity="0"
     inkscape:pagecheckerboard="1"
     inkscape:deskcolor="#d1d1d1"
     inkscape:document-units="pt"
     inkscape:zoom="1.4778261"
     inkscape:cx="281.49456"
     inkscape:cy="383.33333"
     inkscape:window-width="2560"
     inkscape:window-height="1351"
     inkscape:window-x="1911"
     inkscape:window-y="-9"
     inkscape:window-maximized="1"
     inkscape:current-layer="svg25" />
  <path
     d="M 86.95 8.78 C 92.71 9.07 98.57 12.74 103.52 15.49 C 124.32 28.25 143.23 44.44 160.62 61.49 C 175.93 59.21 191.53 58.19 207.00 58.42 C 221.86 58.22 236.74 59.43 251.45 61.46 C 269.04 43.90 288.41 27.76 309.62 14.74 C 314.53 12.11 320.94 8.19 326.69 8.85 C 332.76 9.70 336.09 14.63 337.89 20.05 C 341.16 30.71 343.10 41.89 343.83 53.01 C 344.66 60.95 344.71 68.97 344.05 76.92 C 342.98 91.57 340.45 106.40 335.52 120.27 C 347.15 135.37 358.81 150.85 369.01 166.96 C 372.84 172.83 376.03 178.77 378.74 185.25 C 385.60 200.20 389.62 215.85 387.14 232.39 C 384.55 245.81 376.71 256.72 366.76 265.76 C 357.78 273.89 347.85 280.77 336.91 286.01 C 334.65 287.15 332.38 288.28 330.08 289.33 L 329.81 289.44 C 302.76 301.32 273.64 308.81 244.47 313.17 C 231.74 315.08 218.85 315.97 206.00 316.41 C 172.61 315.61 139.25 309.47 107.50 299.19 C 98.73 296.25 90.04 293.01 81.56 289.30 C 79.41 288.28 77.34 287.12 75.19 286.10 C 66.58 282.01 58.48 276.93 51.08 270.92 C 44.48 265.85 38.50 260.13 33.84 253.19 C 25.57 242.19 22.18 227.32 24.52 213.81 C 25.56 203.89 28.97 195.05 32.80 185.94 C 36.07 177.90 40.42 170.45 45.25 163.27 C 54.66 148.67 65.26 134.60 75.93 120.90 C 75.46 117.12 74.18 113.61 73.11 109.97 C 66.75 85.60 65.46 60.10 70.27 35.32 C 71.56 28.65 72.94 21.15 76.30 15.19 C 78.46 11.34 82.38 8.44 86.95 8.78 Z"
     fill="#a54c10"
     id="path2" />
  <path
     d="M 86.99 14.82 C 91.08 15.25 95.02 17.46 98.54 19.49 C 115.80 29.63 131.28 42.52 146.11 55.89 C 149.25 58.76 152.10 61.91 155.13 64.89 C 156.65 66.19 157.71 67.68 159.95 67.42 C 166.65 66.91 173.26 65.58 180.01 65.36 C 204.36 63.38 228.99 64.24 253.17 67.70 C 258.55 62.90 263.85 58.06 269.01 53.00 C 283.80 39.92 299.88 26.93 317.20 17.34 C 320.09 15.91 324.55 13.78 327.69 15.36 C 330.46 17.07 331.94 21.02 332.86 23.99 C 341.16 54.57 340.11 87.36 330.20 117.43 C 329.77 119.19 328.87 121.31 330.04 122.95 C 331.92 125.97 334.41 128.61 336.53 131.47 C 344.92 142.46 353.15 153.62 360.77 165.16 C 368.25 176.28 374.40 188.46 378.48 201.24 C 381.81 211.23 382.71 221.75 381.09 232.15 C 380.03 237.20 378.01 242.08 375.37 246.50 C 371.75 240.40 368.59 234.17 364.49 228.54 C 357.26 218.30 348.42 209.17 338.64 201.34 C 334.11 198.04 329.34 194.22 324.02 192.36 C 317.31 194.76 311.22 198.13 304.03 199.22 C 296.04 200.33 287.35 200.09 279.73 197.26 C 267.90 192.80 258.26 185.90 247.63 179.36 C 237.71 173.45 227.36 168.38 215.82 166.67 C 209.91 166.06 203.88 166.14 197.96 166.48 C 184.52 167.88 172.50 174.26 161.20 181.31 C 149.26 188.72 137.41 197.44 123.17 199.61 C 116.44 200.93 109.52 199.82 102.93 198.23 C 97.96 197.03 93.67 194.46 88.94 192.70 C 87.43 191.99 86.06 192.98 84.73 193.62 C 75.96 198.65 68.27 205.01 60.99 211.99 C 55.03 218.39 49.39 225.19 44.66 232.57 C 41.68 237.04 39.26 241.80 36.49 246.40 C 33.43 240.99 31.15 235.21 30.30 229.02 C 29.04 222.30 30.25 214.88 31.51 208.21 C 35.94 190.14 44.49 174.30 55.09 159.16 C 62.62 148.40 70.31 137.76 78.46 127.46 C 79.83 125.70 81.34 123.89 82.41 121.93 C 82.52 119.94 81.66 117.86 81.13 115.94 C 72.21 87.84 70.78 57.19 77.81 28.51 C 78.78 24.69 79.83 20.39 82.07 17.09 C 83.12 15.46 85.08 14.63 86.99 14.82 Z"
     fill="#ffc04a"
     id="path3" />
  <path
     d="M 92.93 28.05 C 105.70 35.53 115.90 47.56 125.04 58.96 C 126.46 60.65 127.35 62.59 128.18 64.61 C 122.78 65.65 117.34 66.29 112.03 67.81 C 117.64 70.04 123.48 70.63 129.29 71.98 L 129.64 74.09 C 126.95 76.02 123.89 77.34 121.21 79.31 C 116.33 82.90 112.07 87.74 107.83 91.80 C 106.47 93.18 104.77 93.19 102.97 93.83 C 103.60 91.82 103.88 89.97 105.50 88.50 C 110.68 83.36 116.27 78.54 122.03 74.07 C 115.96 72.96 109.18 71.62 104.80 66.91 C 109.81 63.68 116.34 63.17 122.16 62.02 C 119.76 57.36 116.22 54.03 112.90 50.06 C 106.29 42.33 98.61 35.57 89.87 30.32 C 89.14 29.84 88.42 29.35 87.70 28.85 C 89.84 27.52 90.52 26.59 92.93 28.05 Z"
     fill="#a54c10"
     id="path4" />
  <path
     d="M 323.41 27.75 C 323.22 28.68 323.01 29.59 322.76 30.50 C 309.33 37.06 298.40 50.64 289.15 62.06 C 294.83 62.99 300.39 64.19 305.94 65.72 C 305.60 67.52 305.83 68.95 303.95 69.92 C 299.71 72.24 294.60 73.18 290.02 74.65 C 296.54 78.85 301.83 84.30 307.21 89.82 C 308.52 90.99 308.45 92.42 308.87 94.02 C 307.11 93.54 305.48 93.25 304.18 91.85 C 299.39 87.12 294.79 81.95 288.83 78.27 C 285.96 76.37 282.97 75.85 281.84 72.20 C 287.93 71.00 293.95 70.28 299.74 67.85 C 294.67 66.32 289.36 66.19 284.30 64.74 C 284.04 62.44 285.80 60.77 287.02 59.01 C 295.49 48.38 305.19 37.12 316.64 29.63 C 318.62 28.50 321.05 26.55 323.41 27.75 Z"
     fill="#a54c10"
     id="path5" />
  <path
     d="M 89.87 30.32 C 98.61 35.57 106.29 42.33 112.90 50.06 C 116.22 54.03 119.76 57.36 122.16 62.02 C 116.34 63.17 109.81 63.68 104.80 66.91 C 109.18 71.62 115.96 72.96 122.03 74.07 C 116.27 78.54 110.68 83.36 105.50 88.50 C 103.88 89.97 103.60 91.82 102.97 93.83 C 98.82 98.76 94.58 103.57 90.00 108.10 C 87.05 93.55 85.05 78.88 85.27 64.00 C 85.32 53.31 84.82 40.02 89.87 30.32 Z"
     fill="#fff4db"
     id="path6" />
  <path
     d="M 322.76 30.50 C 325.20 38.17 326.64 45.94 326.70 54.00 C 326.79 64.24 327.00 74.83 325.69 84.96 C 324.74 92.66 324.00 100.88 321.39 108.17 C 317.36 103.31 312.98 98.79 308.87 94.02 C 308.45 92.42 308.52 90.99 307.21 89.82 C 301.83 84.30 296.54 78.85 290.02 74.65 C 294.60 73.18 299.71 72.24 303.95 69.92 C 305.83 68.95 305.60 67.52 305.94 65.72 C 300.39 64.19 294.83 62.99 289.15 62.06 C 298.40 50.64 309.33 37.06 322.76 30.50 Z"
     fill="#fff4db"
     id="path7" />
  <path
     d="M 163.54 114.00 C 167.38 113.40 171.54 113.88 174.14 117.08 C 174.80 119.41 174.81 122.18 173.04 124.04 C 169.08 129.16 161.07 130.67 154.99 130.54 C 151.36 130.60 148.50 129.01 145.43 127.32 C 145.57 124.90 144.88 122.70 146.86 120.89 C 151.04 116.70 157.83 114.84 163.54 114.00 Z"
     fill="#fff4db"
     id="path8" />
  <path
     d="M 241.32 114.48 C 245.29 113.18 249.98 114.07 253.92 115.14 C 257.80 116.36 262.17 118.00 265.15 120.86 C 267.14 122.67 267.42 126.44 265.02 128.04 C 262.09 130.51 257.63 130.67 253.99 130.50 C 248.59 130.14 242.44 128.49 238.82 124.18 C 236.26 120.93 237.02 115.77 241.32 114.48 Z"
     fill="#fff4db"
     id="path9" />
  <path
     d="M 133.55 145.95 C 137.29 145.20 141.21 145.17 145.01 145.28 C 151.67 145.49 158.14 148.46 162.78 153.23 C 165.15 155.62 168.05 158.56 168.90 161.89 C 166.60 165.09 162.75 167.34 159.46 169.42 C 149.76 175.07 138.25 178.70 126.98 178.44 C 121.51 178.55 116.37 174.54 115.44 169.10 C 114.71 163.40 116.25 157.46 120.27 153.26 C 123.73 149.21 128.40 147.01 133.55 145.95 Z"
     fill="#441f04"
     id="path10" />
  <path
     d="M 281.42 146.84 C 290.66 149.47 297.40 158.33 296.66 168.04 C 296.67 172.71 292.12 176.72 287.97 178.03 C 283.49 178.97 278.44 178.18 273.95 177.45 C 262.33 175.72 251.17 169.69 242.32 162.10 C 245.11 157.29 248.13 152.89 252.94 149.89 C 260.93 144.18 272.33 144.27 281.42 146.84 Z"
     fill="#441f04"
     id="path11" />
  <path
     d="M 153.39 152.29 C 154.36 154.63 154.63 156.68 154.64 159.20 C 152.81 159.66 150.75 160.53 148.85 160.31 C 146.69 158.84 146.41 156.90 146.36 154.47 C 148.40 151.89 150.43 152.35 153.39 152.29 Z"
     fill="#fff4db"
     id="path12" />
  <path
     d="M 286.26 153.18 C 287.04 155.12 288.16 156.64 287.65 158.83 C 287.15 159.86 286.26 160.71 285.54 161.59 C 284.21 161.54 282.89 161.49 281.56 161.45 C 280.87 160.36 280.19 159.28 279.54 158.17 C 279.57 157.06 279.63 155.96 279.70 154.87 C 281.76 153.50 283.86 153.37 286.26 153.18 Z"
     fill="#fff4db"
     id="path13" />
  <path
     d="M 197.96 166.48 C 203.88 166.14 209.91 166.06 215.82 166.67 C 227.36 168.38 237.71 173.45 247.63 179.36 C 258.26 185.90 267.90 192.80 279.73 197.26 C 287.35 200.09 296.04 200.33 304.03 199.22 C 311.22 198.13 317.31 194.76 324.02 192.36 C 329.34 194.22 334.11 198.04 338.64 201.34 C 348.42 209.17 357.26 218.30 364.49 228.54 C 368.59 234.17 371.75 240.40 375.37 246.50 C 371.24 253.19 365.82 258.74 359.90 263.84 C 350.83 271.54 340.65 277.98 329.80 282.87 C 301.47 295.66 270.67 303.44 239.94 307.75 C 222.62 310.36 205.53 310.03 188.00 309.49 C 157.33 306.91 126.99 300.12 98.09 289.54 C 81.09 283.24 65.26 275.52 51.52 263.48 C 45.95 258.10 40.33 253.18 36.49 246.40 C 39.26 241.80 41.68 237.04 44.66 232.57 C 49.39 225.19 55.03 218.39 60.99 211.99 C 68.27 205.01 75.96 198.65 84.73 193.62 C 86.06 192.98 87.43 191.99 88.94 192.70 C 93.67 194.46 97.96 197.03 102.93 198.23 C 109.52 199.82 116.44 200.93 123.17 199.61 C 137.41 197.44 149.26 188.72 161.20 181.31 C 172.50 174.26 184.52 167.88 197.96 166.48 Z"
     fill="#fff4db"
     id="path14" />
  <path
     d="M 195.08 176.78 C 201.57 176.10 208.53 176.08 215.03 176.61 C 222.49 177.71 229.84 179.46 234.64 185.77 C 234.70 188.30 234.71 190.83 234.71 193.37 C 232.90 195.49 231.39 197.53 228.66 198.53 C 222.47 201.01 215.21 201.08 208.62 201.38 C 208.61 202.89 208.61 204.39 208.61 205.90 C 212.39 208.89 216.16 210.88 220.74 212.37 C 237.35 217.96 255.92 219.26 273.34 219.44 C 273.90 221.22 275.24 223.13 274.30 224.99 C 271.93 227.58 267.46 228.18 264.29 229.55 C 254.68 233.36 245.34 238.56 236.61 244.07 C 235.16 251.18 234.91 257.93 231.46 264.51 C 227.54 272.85 221.07 278.23 212.08 280.37 C 204.16 280.94 196.72 280.79 189.91 276.20 C 182.34 271.15 179.01 262.47 176.79 254.03 C 176.48 250.68 175.93 247.36 175.39 244.04 C 167.30 239.12 159.04 234.59 150.38 230.73 C 146.03 228.93 141.56 227.81 137.44 225.43 C 137.47 224.13 137.50 222.84 137.54 221.54 C 138.19 220.83 138.85 220.12 139.50 219.41 C 147.62 219.60 155.62 218.78 163.70 218.14 C 177.48 216.16 190.35 214.36 202.46 206.98 C 202.55 205.12 202.61 203.27 202.68 201.41 C 197.14 201.11 191.43 200.85 186.02 199.53 C 182.58 198.45 178.99 197.04 177.58 193.42 C 175.80 190.24 176.86 185.89 179.44 183.45 C 183.15 179.26 189.86 178.02 195.08 176.78 Z"
     fill="#441f04"
     id="path15" />
  <path
     d="M 201.61 212.31 C 201.64 224.22 201.23 237.18 204.61 248.71 C 205.82 248.62 207.03 248.53 208.24 248.43 C 210.51 236.62 209.42 224.05 209.60 212.05 C 213.94 214.46 218.57 216.13 223.27 217.68 C 224.05 222.22 224.97 227.54 227.55 231.45 C 228.63 233.14 230.60 233.43 232.33 234.18 C 232.73 240.53 232.95 246.66 231.53 252.91 C 230.15 259.25 227.91 265.55 223.20 270.20 C 219.70 273.89 215.20 276.44 210.03 276.65 C 204.63 276.85 198.54 277.25 193.75 274.36 C 187.23 271.15 183.37 263.61 181.34 256.95 C 178.83 249.13 179.40 241.70 179.65 233.63 C 180.70 233.59 181.76 233.56 182.82 233.53 C 186.60 228.83 187.64 223.40 188.71 217.64 C 193.12 216.10 197.50 214.57 201.61 212.31 Z"
     fill="#ff8e63"
     id="path16" />
  <path
     d="M 227.37 218.38 C 227.90 218.60 228.44 218.82 228.97 219.03 C 232.14 220.05 235.40 220.51 238.70 220.86 C 238.67 221.39 238.64 221.91 238.61 222.44 C 236.27 225.49 234.37 228.53 230.72 230.17 C 228.98 226.39 227.45 222.62 227.37 218.38 Z"
     fill="#fff4db"
     id="path17" />
  <path
     d="M 184.80 218.98 C 184.00 222.78 182.93 226.39 181.33 229.92 C 180.75 229.79 180.17 229.66 179.59 229.53 C 176.93 226.84 174.18 224.65 172.93 220.93 C 174.95 220.65 176.96 220.39 178.96 220.02 L 179.95 219.82 C 181.56 219.52 183.18 219.25 184.80 218.98 Z"
     fill="#fff4db"
     id="path18" />
  <path
     d="M 75.19 286.10 C 77.34 287.12 79.41 288.28 81.56 289.30 C 76.85 291.82 72.28 294.50 68.07 297.81 C 79.03 311.72 91.19 323.94 103.03 336.98 C 114.65 348.69 126.32 360.34 138.01 371.99 C 153.20 385.88 167.71 399.55 184.82 411.20 C 189.65 414.52 194.84 417.36 200.24 419.65 C 204.48 421.42 209.06 420.89 213.16 419.01 C 218.46 416.61 223.65 413.68 228.39 410.29 C 243.97 399.19 258.45 386.47 272.20 373.19 C 283.26 363.30 293.55 352.52 303.98 341.97 C 308.59 336.91 313.16 331.85 318.07 327.07 C 326.73 317.45 335.56 308.03 343.74 298.00 C 339.57 294.48 334.99 291.69 330.08 289.33 C 332.38 288.28 334.65 287.15 336.91 286.01 C 341.06 288.64 346.61 291.39 349.33 295.59 C 351.18 299.80 346.51 303.80 344.25 306.90 C 342.74 308.64 341.23 310.38 339.71 312.11 C 333.61 318.90 327.57 325.67 321.26 332.25 C 313.21 341.56 304.07 349.66 295.73 358.74 C 289.51 364.59 283.54 370.67 277.47 376.68 C 260.54 392.31 242.72 408.98 222.91 420.86 C 216.17 424.86 208.43 428.28 200.48 426.04 C 189.86 422.84 180.03 415.37 171.26 408.75 C 162.60 402.15 154.34 395.05 146.33 387.69 C 141.90 384.10 138.01 379.98 133.94 376.01 C 129.88 372.07 125.48 368.54 121.57 364.43 C 115.66 358.33 109.35 352.59 103.81 346.18 C 97.47 339.18 90.44 332.87 84.40 325.58 C 80.07 321.23 76.19 316.54 72.03 312.04 C 71.23 311.19 70.43 310.34 69.65 309.46 C 69.00 308.70 68.36 307.93 67.73 307.15 C 65.31 303.74 60.75 300.34 62.69 295.65 C 65.58 291.39 70.66 288.36 75.19 286.10 Z"
     fill="#9e2323"
     id="path19" />
  <path
     d="M 329.81 289.44 L 330.08 289.33 C 334.99 291.69 339.57 294.48 343.74 298.00 C 335.56 308.03 326.73 317.45 318.07 327.07 C 313.16 331.85 308.59 336.91 303.98 341.97 C 293.55 352.52 283.26 363.30 272.20 373.19 C 258.45 386.47 243.97 399.19 228.39 410.29 C 223.65 413.68 218.46 416.61 213.16 419.01 C 209.06 420.89 204.48 421.42 200.24 419.65 C 194.84 417.36 189.65 414.52 184.82 411.20 C 167.71 399.55 153.20 385.88 138.01 371.99 C 126.32 360.34 114.65 348.69 103.03 336.98 C 91.19 323.94 79.03 311.72 68.07 297.81 C 72.28 294.50 76.85 291.82 81.56 289.30 C 90.04 293.01 98.73 296.25 107.50 299.19 C 139.25 309.47 172.61 315.61 206.00 316.41 C 218.85 315.97 231.74 315.08 244.47 313.17 C 273.64 308.81 302.76 301.32 329.81 289.44 Z"
     fill="#ff8e63"
     id="path20" />
  <path
     d="M 67.73 307.15 C 68.36 307.93 69.00 308.70 69.65 309.46 C 70.43 310.34 71.23 311.19 72.03 312.04 C 62.03 333.71 52.02 355.45 43.46 377.74 C 40.53 385.88 37.41 394.25 35.80 402.76 C 33.26 416.12 30.96 429.37 30.60 443.00 C 30.94 457.90 33.98 472.54 41.47 485.55 C 49.62 499.93 62.53 511.86 76.35 520.73 C 94.91 533.08 116.66 540.95 138.39 545.55 C 132.80 537.63 126.05 530.50 120.55 522.49 C 119.36 520.57 118.64 518.17 121.48 517.46 C 124.06 516.91 125.04 518.80 126.52 520.47 C 134.79 531.41 143.41 542.18 152.77 552.22 C 155.57 555.28 157.86 558.35 161.50 560.51 C 166.45 563.40 171.75 563.96 177.31 564.72 C 173.53 558.41 169.65 552.57 165.23 546.70 C 166.26 546.13 167.27 545.55 168.27 544.95 C 173.27 551.19 177.36 557.51 181.09 564.58 C 186.49 564.14 191.59 562.71 196.72 561.08 C 194.64 555.70 192.45 550.55 189.16 545.77 C 187.75 543.80 186.75 541.72 185.92 539.44 C 186.93 539.30 187.95 539.16 188.96 539.02 C 193.56 544.96 196.45 551.71 200.07 558.23 C 201.08 554.10 202.13 550.26 201.39 545.97 C 200.07 537.57 195.64 529.19 192.61 521.21 C 188.90 511.98 186.06 502.50 183.88 492.79 C 182.73 487.77 182.04 482.69 181.33 477.59 C 182.20 476.89 183.10 476.23 184.02 475.60 C 185.15 475.86 186.28 476.14 187.40 476.43 C 188.02 482.43 188.89 488.33 190.36 494.19 C 193.66 508.79 199.44 522.35 205.13 536.12 C 210.91 522.40 216.56 508.76 220.00 494.22 C 221.12 489.89 221.79 485.47 222.38 481.04 C 222.70 479.09 222.73 477.32 224.13 475.78 C 226.32 475.03 227.16 476.48 228.86 477.50 C 228.41 482.74 227.49 487.88 226.37 493.01 C 223.86 504.26 220.29 515.24 215.87 525.88 C 212.54 533.94 207.47 544.17 208.90 553.03 C 209.38 554.14 209.35 557.46 211.21 556.78 C 214.01 550.26 217.11 544.63 221.35 538.92 C 222.51 539.44 223.67 539.98 224.83 540.53 C 220.01 546.71 215.96 553.34 213.86 560.96 C 219.02 562.95 223.88 564.14 229.39 564.73 C 232.87 557.58 236.93 551.34 241.90 545.15 C 243.02 545.62 244.10 545.85 244.85 546.90 C 240.97 552.76 236.43 557.91 233.74 564.53 C 238.93 564.08 243.93 563.15 248.49 560.52 C 251.81 558.77 253.97 556.14 256.43 553.43 C 265.77 543.36 274.55 532.77 282.76 521.77 C 283.90 520.29 285.09 518.70 286.51 517.47 C 287.86 517.38 289.28 518.00 290.58 518.31 C 290.60 519.39 290.62 520.46 290.64 521.54 C 284.28 529.82 277.85 537.98 271.18 546.01 C 290.96 542.21 310.12 535.60 327.67 525.66 C 342.24 517.08 355.47 507.33 365.47 493.47 C 378.09 476.40 382.86 454.96 380.83 434.01 C 380.27 423.77 378.20 413.55 376.43 403.45 C 373.86 390.68 368.80 378.19 363.96 366.12 C 358.44 352.46 352.39 339.10 346.28 325.70 C 344.05 321.15 342.44 316.42 339.71 312.11 C 341.23 310.38 342.74 308.64 344.25 306.90 C 353.15 326.27 362.21 345.77 370.23 365.53 C 375.31 378.47 380.72 392.18 382.93 405.93 C 384.72 415.60 386.54 425.15 386.85 435.01 C 387.86 442.65 387.08 450.16 386.22 457.77 C 383.65 476.39 374.69 494.12 361.44 507.43 C 352.31 516.95 341.64 524.72 330.12 531.10 C 310.83 542.08 289.27 549.03 267.44 552.78 C 265.97 553.08 264.65 553.42 263.62 554.59 C 259.37 558.94 256.02 563.50 250.44 566.39 C 238.17 572.15 223.96 571.78 211.59 566.50 C 208.91 565.09 206.99 562.96 205.07 560.67 C 203.12 563.00 201.33 565.22 198.48 566.50 C 185.67 572.15 169.18 572.29 157.08 564.80 C 152.62 561.47 149.04 556.88 145.10 552.97 C 120.05 548.66 95.87 540.16 74.26 526.67 C 68.32 523.40 63.50 519.02 58.27 514.77 C 42.63 501.75 31.19 484.06 26.91 464.06 C 24.76 454.70 25.06 444.59 25.26 434.99 C 25.35 425.09 27.56 414.84 29.29 405.05 C 31.09 393.47 35.43 381.94 39.62 371.02 C 48.10 349.38 57.92 328.22 67.73 307.15 Z"
     fill="#a54c10"
     id="path21" />
  <path
     d="M 72.03 312.04 C 76.19 316.54 80.07 321.23 84.40 325.58 C 90.44 332.87 97.47 339.18 103.81 346.18 C 109.35 352.59 115.66 358.33 121.57 364.43 C 125.48 368.54 129.88 372.07 133.94 376.01 C 131.66 388.24 130.14 400.53 130.58 413.00 C 129.82 433.81 134.34 456.65 148.18 472.88 C 157.47 483.58 170.11 489.94 183.88 492.79 C 186.06 502.50 188.90 511.98 192.61 521.21 C 195.64 529.19 200.07 537.57 201.39 545.97 C 202.13 550.26 201.08 554.10 200.07 558.23 C 196.45 551.71 193.56 544.96 188.96 539.02 C 187.95 539.16 186.93 539.30 185.92 539.44 C 186.75 541.72 187.75 543.80 189.16 545.77 C 192.45 550.55 194.64 555.70 196.72 561.08 C 191.59 562.71 186.49 564.14 181.09 564.58 C 177.36 557.51 173.27 551.19 168.27 544.95 C 167.27 545.55 166.26 546.13 165.23 546.70 C 169.65 552.57 173.53 558.41 177.31 564.72 C 171.75 563.96 166.45 563.40 161.50 560.51 C 157.86 558.35 155.57 555.28 152.77 552.22 C 143.41 542.18 134.79 531.41 126.52 520.47 C 125.04 518.80 124.06 516.91 121.48 517.46 C 118.64 518.17 119.36 520.57 120.55 522.49 C 126.05 530.50 132.80 537.63 138.39 545.55 C 116.66 540.95 94.91 533.08 76.35 520.73 C 62.53 511.86 49.62 499.93 41.47 485.55 C 33.98 472.54 30.94 457.90 30.60 443.00 C 30.96 429.37 33.26 416.12 35.80 402.76 C 37.41 394.25 40.53 385.88 43.46 377.74 C 52.02 355.45 62.03 333.71 72.03 312.04 Z"
     fill="#ffc04a"
     id="path22" />
  <path
     d="M 339.71 312.11 C 342.44 316.42 344.05 321.15 346.28 325.70 C 352.39 339.10 358.44 352.46 363.96 366.12 C 368.80 378.19 373.86 390.68 376.43 403.45 C 378.20 413.55 380.27 423.77 380.83 434.01 C 382.86 454.96 378.09 476.40 365.47 493.47 C 355.47 507.33 342.24 517.08 327.67 525.66 C 310.12 535.60 290.96 542.21 271.18 546.01 C 277.85 537.98 284.28 529.82 290.64 521.54 C 290.62 520.46 290.60 519.39 290.58 518.31 C 289.28 518.00 287.86 517.38 286.51 517.47 C 285.09 518.70 283.90 520.29 282.76 521.77 C 274.55 532.77 265.77 543.36 256.43 553.43 C 253.97 556.14 251.81 558.77 248.49 560.52 C 243.93 563.15 238.93 564.08 233.74 564.53 C 236.43 557.91 240.97 552.76 244.85 546.90 C 244.10 545.85 243.02 545.62 241.90 545.15 C 236.93 551.34 232.87 557.58 229.39 564.73 C 223.88 564.14 219.02 562.95 213.86 560.96 C 215.96 553.34 220.01 546.71 224.83 540.53 C 223.67 539.98 222.51 539.44 221.35 538.92 C 217.11 544.63 214.01 550.26 211.21 556.78 C 209.35 557.46 209.38 554.14 208.90 553.03 C 207.47 544.17 212.54 533.94 215.87 525.88 C 220.29 515.24 223.86 504.26 226.37 493.01 C 243.09 490.53 258.58 481.15 268.06 467.06 C 276.80 453.90 280.41 437.58 281.29 422.01 C 281.32 414.02 281.60 405.92 280.78 397.98 C 280.11 390.68 279.66 383.73 277.47 376.68 C 283.54 370.67 289.51 364.59 295.73 358.74 C 304.07 349.66 313.21 341.56 321.26 332.25 C 327.57 325.67 333.61 318.90 339.71 312.11 Z"
     fill="#ffc04a"
     id="path23" />
  <path
     d="M 133.94 376.01 C 138.01 379.98 141.90 384.10 146.33 387.69 C 154.34 395.05 162.60 402.15 171.26 408.75 C 180.03 415.37 189.86 422.84 200.48 426.04 C 208.43 428.28 216.17 424.86 222.91 420.86 C 242.72 408.98 260.54 392.31 277.47 376.68 C 279.66 383.73 280.11 390.68 280.78 397.98 C 281.60 405.92 281.32 414.02 281.29 422.01 C 280.41 437.58 276.80 453.90 268.06 467.06 C 258.58 481.15 243.09 490.53 226.37 493.01 C 227.49 487.88 228.41 482.74 228.86 477.50 C 227.16 476.48 226.32 475.03 224.13 475.78 C 222.73 477.32 222.70 479.09 222.38 481.04 C 221.79 485.47 221.12 489.89 220.00 494.22 C 210.20 495.30 200.17 494.82 190.36 494.19 C 188.89 488.33 188.02 482.43 187.40 476.43 C 186.28 476.14 185.15 475.86 184.02 475.60 C 183.10 476.23 182.20 476.89 181.33 477.59 C 182.04 482.69 182.73 487.77 183.88 492.79 C 170.11 489.94 157.47 483.58 148.18 472.88 C 134.34 456.65 129.82 433.81 130.58 413.00 C 130.14 400.53 131.66 388.24 133.94 376.01 Z"
     fill="#fff4db"
     id="path24" />
  <path
     d="M 190.36 494.19 C 200.17 494.82 210.20 495.30 220.00 494.22 C 216.56 508.76 210.91 522.40 205.13 536.12 C 199.44 522.35 193.66 508.79 190.36 494.19 Z"
     fill="#ffc04a"
     id="path25" />
</svg>
