<svg width="512" height="512" viewBox="0 0 512 512" fill="none" xmlns="http://www.w3.org/2000/svg">
<path d="M149.333 234.667V149.333C149.333 121.044 160.571 93.9124 180.575 73.9086C200.579 53.9047 227.71 42.6667 256 42.6667C284.29 42.6667 311.421 53.9047 331.425 73.9086C351.43 93.9124 362.667 121.044 362.667 149.333V234.667M106.667 234.667H405.333C428.899 234.667 448 253.769 448 277.333V426.667C448 450.232 428.899 469.333 405.333 469.333H106.667C83.1024 469.333 64 450.232 64 426.667V277.333C64 253.769 83.1024 234.667 106.667 234.667Z" stroke="#1E1E1E" stroke-width="4" stroke-linecap="round" stroke-linejoin="round"/>
</svg>
